<svg width="14" height="9" viewBox="0 0 14 9" fill="none" xmlns="http://www.w3.org/2000/svg">
<path d="M11.8917 6.97083C12.0569 7.05833 12.2028 7.03889 12.3292 6.9125C12.4556 6.78611 12.475 6.64028 12.3875 6.475L11.5417 4.9L10.9292 6.475L11.8917 6.97083ZM8.975 6.41667H9.675L11.075 2.94583C11.1042 2.86806 11.0969 2.80243 11.0531 2.74896C11.0094 2.69549 10.9583 2.65417 10.9 2.625L9.73333 2.15833C9.64583 2.12917 9.56076 2.13889 9.47813 2.1875C9.39549 2.23611 9.34444 2.30417 9.325 2.39167L8.975 6.41667ZM4.65833 6.41667H5.35833L5.00833 2.39167C4.98889 2.28472 4.93785 2.21181 4.85521 2.17292C4.77257 2.13403 4.6875 2.12917 4.6 2.15833L3.43333 2.625C3.35556 2.65417 3.29965 2.69549 3.26562 2.74896C3.2316 2.80243 3.22917 2.86806 3.25833 2.94583L4.65833 6.41667ZM2.44167 6.97083L3.40417 6.475L2.79167 4.9L1.94583 6.475C1.85833 6.64028 1.87778 6.78611 2.00417 6.9125C2.13056 7.03889 2.27639 7.05833 2.44167 6.97083ZM6.525 6.41667H7.80833L8.24583 1.4875C8.26528 1.4 8.2434 1.32465 8.18021 1.26146C8.11701 1.19826 8.04167 1.16667 7.95417 1.16667H6.37917C6.30139 1.16667 6.2309 1.19826 6.16771 1.26146C6.10451 1.32465 6.07778 1.4 6.0875 1.4875L6.525 6.41667ZM2.17917 8.16667C1.77083 8.16667 1.43056 8.01354 1.15833 7.70729C0.886111 7.40104 0.75 7.03889 0.75 6.62083C0.75 6.50417 0.767014 6.38993 0.801042 6.27813C0.835069 6.16632 0.876389 6.05694 0.925 5.95L2.20833 3.5C2.07222 3.11111 2.07708 2.72708 2.22292 2.34792C2.36875 1.96875 2.62639 1.70139 2.99583 1.54583L4.1625 1.07917C4.29861 1.03056 4.43472 0.996528 4.57083 0.977083C4.70694 0.957639 4.84306 0.9625 4.97917 0.991667C5.11528 0.709722 5.30486 0.473958 5.54792 0.284375C5.79097 0.0947917 6.06806 0 6.37917 0H7.95417C8.26528 0 8.54236 0.0947917 8.78542 0.284375C9.02847 0.473958 9.21806 0.709722 9.35417 0.991667C9.49028 0.972222 9.62639 0.969792 9.7625 0.984375C9.89861 0.998958 10.0347 1.03056 10.1708 1.07917L11.3375 1.54583C11.7264 1.70139 11.9986 1.96875 12.1542 2.34792C12.3097 2.72708 12.3 3.10139 12.125 3.47083L13.4083 5.92083C13.4667 6.02778 13.5104 6.13958 13.5396 6.25625C13.5688 6.37292 13.5833 6.49445 13.5833 6.62083C13.5833 7.05833 13.4351 7.42535 13.1385 7.72188C12.842 8.0184 12.475 8.16667 12.0375 8.16667C11.9306 8.16667 11.8236 8.15451 11.7167 8.13021C11.6097 8.1059 11.5028 8.06944 11.3958 8.02083L10.4917 7.58333H3.8125L2.99583 8.02083C2.86944 8.08889 2.73576 8.13021 2.59479 8.14479C2.45382 8.15938 2.31528 8.16667 2.17917 8.16667Z" fill="white"/>
</svg>
