<svg width="20" height="20" viewBox="0 0 20 20" fill="none" xmlns="http://www.w3.org/2000/svg">
<circle cx="10" cy="10" r="10" fill="#D7A97B"/>
<path d="M14.7257 12.8888C14.8909 12.9763 15.0368 12.9569 15.1632 12.8305C15.2895 12.7041 15.309 12.5582 15.2215 12.393L14.3757 10.818L13.7632 12.393L14.7257 12.8888ZM11.809 12.3346H12.509L13.909 8.8638C13.9382 8.78602 13.9309 8.7204 13.8871 8.66693C13.8434 8.61346 13.7923 8.57214 13.734 8.54297L12.5673 8.0763C12.4798 8.04714 12.3947 8.05686 12.3121 8.10547C12.2295 8.15408 12.1784 8.22214 12.159 8.30964L11.809 12.3346ZM7.49232 12.3346H8.19232L7.84232 8.30964C7.82287 8.20269 7.77183 8.12977 7.68919 8.09089C7.60655 8.052 7.52148 8.04714 7.43398 8.0763L6.26732 8.54297C6.18954 8.57214 6.13364 8.61346 6.09961 8.66693C6.06558 8.7204 6.06315 8.78602 6.09232 8.8638L7.49232 12.3346ZM5.27565 12.8888L6.23815 12.393L5.62565 10.818L4.77982 12.393C4.69232 12.5582 4.71176 12.7041 4.83815 12.8305C4.96454 12.9569 5.11037 12.9763 5.27565 12.8888ZM9.35898 12.3346H10.6423L11.0798 7.40547C11.0993 7.31797 11.0774 7.24262 11.0142 7.17943C10.951 7.11623 10.8757 7.08464 10.7882 7.08464H9.21315C9.13537 7.08464 9.06489 7.11623 9.00169 7.17943C8.9385 7.24262 8.91176 7.31797 8.92148 7.40547L9.35898 12.3346ZM5.01315 14.0846C4.60482 14.0846 4.26454 13.9315 3.99232 13.6253C3.7201 13.319 3.58398 12.9569 3.58398 12.5388C3.58398 12.4221 3.601 12.3079 3.63503 12.1961C3.66905 12.0843 3.71037 11.9749 3.75898 11.868L5.04232 9.41797C4.90621 9.02908 4.91107 8.64505 5.0569 8.26589C5.20273 7.88672 5.46037 7.61936 5.82982 7.4638L6.99648 6.99714C7.1326 6.94852 7.26871 6.9145 7.40482 6.89505C7.54093 6.87561 7.67704 6.88047 7.81315 6.90964C7.94926 6.62769 8.13885 6.39193 8.3819 6.20234C8.62496 6.01276 8.90204 5.91797 9.21315 5.91797H10.7882C11.0993 5.91797 11.3763 6.01276 11.6194 6.20234C11.8625 6.39193 12.052 6.62769 12.1882 6.90964C12.3243 6.89019 12.4604 6.88776 12.5965 6.90234C12.7326 6.91693 12.8687 6.94852 13.0048 6.99714L14.1715 7.4638C14.5604 7.61936 14.8326 7.88672 14.9882 8.26589C15.1437 8.64505 15.134 9.01936 14.959 9.3888L16.2423 11.8388C16.3007 11.9457 16.3444 12.0576 16.3736 12.1742C16.4027 12.2909 16.4173 12.4124 16.4173 12.5388C16.4173 12.9763 16.2691 13.3433 15.9725 13.6398C15.676 13.9364 15.309 14.0846 14.8715 14.0846C14.7645 14.0846 14.6576 14.0725 14.5507 14.0482C14.4437 14.0239 14.3368 13.9874 14.2298 13.9388L13.3257 13.5013H6.64648L5.82982 13.9388C5.70343 14.0069 5.56975 14.0482 5.42878 14.0628C5.2878 14.0773 5.14926 14.0846 5.01315 14.0846Z" fill="white"/>
</svg>
