<svg width="12" height="11" viewBox="0 0 12 11" fill="none" xmlns="http://www.w3.org/2000/svg">
<path d="M0.75 10.5V9.33333H10.0833V10.5H0.75ZM3.08333 8.16667C2.44167 8.16667 1.89236 7.93819 1.43542 7.48125C0.978472 7.02431 0.75 6.475 0.75 5.83333V0H10.0833C10.4042 0 10.6788 0.114236 10.9073 0.342708C11.1358 0.571181 11.25 0.845833 11.25 1.16667V2.91667C11.25 3.2375 11.1358 3.51215 10.9073 3.74062C10.6788 3.9691 10.4042 4.08333 10.0833 4.08333H8.91667V5.83333C8.91667 6.475 8.68819 7.02431 8.23125 7.48125C7.77431 7.93819 7.225 8.16667 6.58333 8.16667H3.08333ZM3.08333 7H6.58333C6.90417 7 7.17882 6.88576 7.40729 6.65729C7.63576 6.42882 7.75 6.15417 7.75 5.83333V1.16667H1.91667V5.83333C1.91667 6.15417 2.0309 6.42882 2.25937 6.65729C2.48785 6.88576 2.7625 7 3.08333 7ZM8.91667 2.91667H10.0833V1.16667H8.91667V2.91667ZM3.08333 7H1.91667H7.75H3.08333Z" fill="white"/>
</svg>
