<svg width="20" height="20" viewBox="0 0 20 20" fill="none" xmlns="http://www.w3.org/2000/svg">
<circle cx="10" cy="10" r="10" fill="#F4A259"/>
<mask id="mask0_2592_2169" style="mask-type:alpha" maskUnits="userSpaceOnUse" x="3" y="3" width="14" height="14">
<rect x="3" y="3" width="14" height="14" fill="#D9D9D9"/>
</mask>
<g mask="url(#mask0_2592_2169)">
<path d="M5.33301 15.25V14.0833H14.6663V15.25H5.33301ZM7.66634 12.9167C7.02467 12.9167 6.47537 12.6882 6.01842 12.2312C5.56148 11.7743 5.33301 11.225 5.33301 10.5833V4.75H14.6663C14.9872 4.75 15.2618 4.86424 15.4903 5.09271C15.7188 5.32118 15.833 5.59583 15.833 5.91667V7.66667C15.833 7.9875 15.7188 8.26215 15.4903 8.49062C15.2618 8.7191 14.9872 8.83333 14.6663 8.83333H13.4997V10.5833C13.4997 11.225 13.2712 11.7743 12.8143 12.2312C12.3573 12.6882 11.808 12.9167 11.1663 12.9167H7.66634ZM7.66634 11.75H11.1663C11.4872 11.75 11.7618 11.6358 11.9903 11.4073C12.2188 11.1788 12.333 10.9042 12.333 10.5833V5.91667H6.49967V10.5833C6.49967 10.9042 6.61391 11.1788 6.84238 11.4073C7.07086 11.6358 7.34551 11.75 7.66634 11.75ZM13.4997 7.66667H14.6663V5.91667H13.4997V7.66667ZM7.66634 11.75H6.49967H12.333H7.66634Z" fill="white"/>
</g>
</svg>
