<svg width="20" height="20" viewBox="0 0 20 20" fill="none" xmlns="http://www.w3.org/2000/svg">
<circle cx="10" cy="10" r="10" fill="#F2C94C"/>
<path d="M5.33268 15.25C5.01185 15.25 4.7372 15.1358 4.50872 14.9073C4.28025 14.6788 4.16602 14.4042 4.16602 14.0833V12.3333H15.8327V14.0833C15.8327 14.4042 15.7184 14.6788 15.49 14.9073C15.2615 15.1358 14.9868 15.25 14.666 15.25H5.33268ZM5.33268 13.5V14.0833H14.666V13.5H5.33268ZM9.99935 10.875C9.64935 10.875 9.37227 10.9722 9.1681 11.1667C8.96393 11.3611 8.58963 11.4583 8.04518 11.4583C7.50074 11.4583 7.13129 11.3611 6.93685 11.1667C6.7424 10.9722 6.47018 10.875 6.12018 10.875C5.77018 10.875 5.4931 10.9722 5.28893 11.1667C5.08477 11.3611 4.71046 11.4583 4.16602 11.4583V10.2917C4.51602 10.2917 4.7931 10.1944 4.99727 10C5.20143 9.80556 5.57574 9.70833 6.12018 9.70833C6.66463 9.70833 7.03407 9.80556 7.22852 10C7.42296 10.1944 7.69518 10.2917 8.04518 10.2917C8.39518 10.2917 8.67227 10.1944 8.87643 10C9.0806 9.80556 9.45491 9.70833 9.99935 9.70833C10.5438 9.70833 10.9181 9.80556 11.1223 10C11.3264 10.1944 11.6035 10.2917 11.9535 10.2917C12.3035 10.2917 12.5757 10.1944 12.7702 10C12.9646 9.80556 13.3341 9.70833 13.8785 9.70833C14.423 9.70833 14.807 9.80556 15.0306 10C15.2542 10.1944 15.5216 10.2917 15.8327 10.2917V11.4583C15.2882 11.4583 14.9237 11.3611 14.7389 11.1667C14.5542 10.9722 14.2868 10.875 13.9368 10.875C13.5868 10.875 13.3049 10.9722 13.091 11.1667C12.8771 11.3611 12.498 11.4583 11.9535 11.4583C11.4091 11.4583 11.0348 11.3611 10.8306 11.1667C10.6264 10.9722 10.3493 10.875 9.99935 10.875ZM4.16602 8.83333V8.25C4.16602 7.13194 4.69345 6.2691 5.74831 5.66146C6.80317 5.05382 8.22018 4.75 9.99935 4.75C11.7785 4.75 13.1955 5.05382 14.2504 5.66146C15.3053 6.2691 15.8327 7.13194 15.8327 8.25V8.83333H4.16602ZM9.99935 5.91667C8.79379 5.91667 7.78511 6.06736 6.97331 6.36875C6.1615 6.67014 5.64379 7.10278 5.42018 7.66667H14.5785C14.3549 7.10278 13.8372 6.67014 13.0254 6.36875C12.2136 6.06736 11.2049 5.91667 9.99935 5.91667Z" fill="white"/>
</svg>
