<svg width="12" height="12" viewBox="0 0 12 12" fill="none" xmlns="http://www.w3.org/2000/svg">
<path d="M1.16667 11.1665C0.845833 11.1665 0.571181 11.0523 0.342708 10.8238C0.114236 10.5953 0 10.3207 0 9.99984V8.24984H11.6667V9.99984C11.6667 10.3207 11.5524 10.5953 11.324 10.8238C11.0955 11.0523 10.8208 11.1665 10.5 11.1665H1.16667ZM1.16667 9.4165V9.99984H10.5V9.4165H1.16667ZM5.83333 6.7915C5.48333 6.7915 5.20625 6.88873 5.00208 7.08317C4.79792 7.27761 4.42361 7.37484 3.87917 7.37484C3.33472 7.37484 2.96528 7.27761 2.77083 7.08317C2.57639 6.88873 2.30417 6.7915 1.95417 6.7915C1.60417 6.7915 1.32708 6.88873 1.12292 7.08317C0.91875 7.27761 0.544444 7.37484 0 7.37484V6.20817C0.35 6.20817 0.627083 6.11095 0.83125 5.9165C1.03542 5.72206 1.40972 5.62484 1.95417 5.62484C2.49861 5.62484 2.86806 5.72206 3.0625 5.9165C3.25694 6.11095 3.52917 6.20817 3.87917 6.20817C4.22917 6.20817 4.50625 6.11095 4.71042 5.9165C4.91458 5.72206 5.28889 5.62484 5.83333 5.62484C6.37778 5.62484 6.75208 5.72206 6.95625 5.9165C7.16042 6.11095 7.4375 6.20817 7.7875 6.20817C8.1375 6.20817 8.40972 6.11095 8.60417 5.9165C8.79861 5.72206 9.16806 5.62484 9.7125 5.62484C10.2569 5.62484 10.641 5.72206 10.8646 5.9165C11.0882 6.11095 11.3556 6.20817 11.6667 6.20817V7.37484C11.1222 7.37484 10.7576 7.27761 10.5729 7.08317C10.3882 6.88873 10.1208 6.7915 9.77083 6.7915C9.42083 6.7915 9.13889 6.88873 8.925 7.08317C8.71111 7.27761 8.33195 7.37484 7.7875 7.37484C7.24306 7.37484 6.86875 7.27761 6.66458 7.08317C6.46042 6.88873 6.18333 6.7915 5.83333 6.7915ZM0 4.74984V4.1665C0 3.04845 0.527431 2.1856 1.58229 1.57796C2.63715 0.970323 4.05417 0.666504 5.83333 0.666504C7.6125 0.666504 9.02951 0.970323 10.0844 1.57796C11.1392 2.1856 11.6667 3.04845 11.6667 4.1665V4.74984H0ZM5.83333 1.83317C4.62778 1.83317 3.6191 1.98387 2.80729 2.28525C1.99549 2.58664 1.47778 3.01928 1.25417 3.58317H10.4125C10.1889 3.01928 9.67118 2.58664 8.85938 2.28525C8.04757 1.98387 7.03889 1.83317 5.83333 1.83317Z" fill="white"/>
</svg>
