<svg width="13" height="11" viewBox="0 0 13 11" fill="none" xmlns="http://www.w3.org/2000/svg">
<path d="M11.9976 0.97248C11.6799 0.664175 11.3028 0.419606 10.8877 0.252745C10.4726 0.0858839 10.0276 0 9.57832 0C9.129 0 8.68407 0.0858839 8.26897 0.252745C7.85386 0.419606 7.47671 0.664175 7.15907 0.97248L6.49983 1.61202L5.8406 0.97248C5.19898 0.350018 4.32874 0.000322644 3.42135 0.00032265C2.51395 0.000322657 1.64372 0.350018 1.00209 0.97248C0.360462 1.59494 6.76064e-09 2.43918 0 3.31947C-6.76064e-09 4.19977 0.360462 5.04401 1.00209 5.66647L6.49983 11L11.9976 5.66647C12.3154 5.35831 12.5675 4.99243 12.7395 4.58972C12.9115 4.18702 13 3.75538 13 3.31947C13 2.88357 12.9115 2.45193 12.7395 2.04923C12.5675 1.64652 12.3154 1.28064 11.9976 0.97248Z" fill="#FF6B6B"/>
</svg>
