<svg width="20" height="20" viewBox="0 0 20 20" fill="none" xmlns="http://www.w3.org/2000/svg">
<circle cx="10" cy="10" r="10" fill="#FF9AA2"/>
<path d="M10.0292 16.4154L7.2875 11.1654C6.59722 11.1945 6.00174 10.9952 5.50104 10.5674C5.00035 10.1397 4.75 9.5612 4.75 8.83203C4.75 8.3362 4.8934 7.88898 5.18021 7.49036C5.46701 7.09175 5.82917 6.80981 6.26667 6.64453C6.44167 5.75981 6.87674 5.02821 7.57187 4.44974C8.26701 3.87127 9.07639 3.58203 10 3.58203C10.9236 3.58203 11.733 3.87127 12.4281 4.44974C13.1233 5.02821 13.5583 5.75981 13.7333 6.64453C14.1708 6.80981 14.533 7.09175 14.8198 7.49036C15.1066 7.88898 15.25 8.3362 15.25 8.83203C15.25 9.5612 14.9924 10.1397 14.4771 10.5674C13.9618 10.9952 13.3833 11.1945 12.7417 11.1654L10.0292 16.4154ZM7.08333 9.9987C7.22917 9.9987 7.37257 9.97439 7.51354 9.92578C7.65451 9.87717 7.78333 9.79453 7.9 9.67786L8.22083 9.35703L8.6 9.59036C8.80417 9.72648 9.02535 9.82856 9.26354 9.89661C9.50174 9.96467 9.74722 9.9987 10 9.9987C10.2528 9.9987 10.4983 9.96467 10.7365 9.89661C10.9747 9.82856 11.1958 9.72648 11.4 9.59036L11.7792 9.35703L12.1 9.67786C12.2167 9.79453 12.3455 9.87717 12.4865 9.92578C12.6274 9.97439 12.7708 9.9987 12.9167 9.9987C13.2375 9.9987 13.5122 9.88446 13.7406 9.65599C13.9691 9.42752 14.0833 9.15286 14.0833 8.83203C14.0833 8.54036 13.991 8.28516 13.8062 8.06641C13.6215 7.84766 13.3833 7.71398 13.0917 7.66536L12.6542 7.60703L12.625 7.14036C12.5764 6.46953 12.2993 5.90321 11.7937 5.44141C11.2882 4.9796 10.6903 4.7487 10 4.7487C9.30972 4.7487 8.71181 4.9796 8.20625 5.44141C7.70069 5.90321 7.42361 6.46953 7.375 7.14036L7.34583 7.60703L6.90833 7.69453C6.61667 7.75286 6.37847 7.88411 6.19375 8.08828C6.00903 8.29245 5.91667 8.54036 5.91667 8.83203C5.91667 9.15286 6.0309 9.42752 6.25937 9.65599C6.48785 9.88446 6.7625 9.9987 7.08333 9.9987ZM10.0292 13.8779L11.6042 10.8154C11.3708 10.932 11.1181 11.0195 10.8458 11.0779C10.5736 11.1362 10.2917 11.1654 10 11.1654C9.7375 11.1654 9.47257 11.1362 9.20521 11.0779C8.93785 11.0195 8.67778 10.932 8.425 10.8154L10.0292 13.8779Z" fill="white"/>
</svg>
