<svg width="12" height="14" viewBox="0 0 12 14" fill="none" xmlns="http://www.w3.org/2000/svg">
<path d="M5.94579 13.4998L3.20413 8.24984C2.51385 8.279 1.91836 8.0797 1.41767 7.65192C0.916973 7.22414 0.666626 6.64567 0.666626 5.9165C0.666626 5.42067 0.810029 4.97345 1.09683 4.57484C1.38364 4.17623 1.74579 3.89428 2.18329 3.729C2.35829 2.84428 2.79336 2.11268 3.4885 1.53421C4.18364 0.95574 4.99301 0.666504 5.91663 0.666504C6.84024 0.666504 7.64961 0.95574 8.34475 1.53421C9.03989 2.11268 9.47496 2.84428 9.64996 3.729C10.0875 3.89428 10.4496 4.17623 10.7364 4.57484C11.0232 4.97345 11.1666 5.42067 11.1666 5.9165C11.1666 6.64567 10.909 7.22414 10.3937 7.65192C9.87843 8.0797 9.29996 8.279 8.65829 8.24984L5.94579 13.4998ZM2.99996 7.08317C3.14579 7.08317 3.2892 7.05886 3.43017 7.01025C3.57114 6.96164 3.69996 6.879 3.81663 6.76234L4.13746 6.4415L4.51663 6.67484C4.72079 6.81095 4.94197 6.91303 5.18017 6.98109C5.41836 7.04914 5.66385 7.08317 5.91663 7.08317C6.1694 7.08317 6.41489 7.04914 6.65308 6.98109C6.89128 6.91303 7.11246 6.81095 7.31663 6.67484L7.69579 6.4415L8.01663 6.76234C8.13329 6.879 8.26211 6.96164 8.40308 7.01025C8.54406 7.05886 8.68746 7.08317 8.83329 7.08317C9.15413 7.08317 9.42878 6.96893 9.65725 6.74046C9.88572 6.51199 9.99996 6.23734 9.99996 5.9165C9.99996 5.62484 9.9076 5.36963 9.72288 5.15088C9.53815 4.93213 9.29996 4.79845 9.00829 4.74984L8.57079 4.6915L8.54163 4.22484C8.49301 3.554 8.21593 2.98768 7.71038 2.52588C7.20482 2.06407 6.6069 1.83317 5.91663 1.83317C5.22635 1.83317 4.62843 2.06407 4.12288 2.52588C3.61732 2.98768 3.34024 3.554 3.29163 4.22484L3.26246 4.6915L2.82496 4.779C2.53329 4.83734 2.2951 4.96859 2.11038 5.17275C1.92565 5.37692 1.83329 5.62484 1.83329 5.9165C1.83329 6.23734 1.94753 6.51199 2.176 6.74046C2.40447 6.96893 2.67913 7.08317 2.99996 7.08317ZM5.94579 10.9623L7.52079 7.89984C7.28746 8.0165 7.03468 8.104 6.76246 8.16234C6.49024 8.22067 6.20829 8.24984 5.91663 8.24984C5.65413 8.24984 5.3892 8.22067 5.12183 8.16234C4.85447 8.104 4.5944 8.0165 4.34163 7.89984L5.94579 10.9623Z" fill="white"/>
</svg>
