<svg width="19" height="24" viewBox="0 0 19 24" fill="none" xmlns="http://www.w3.org/2000/svg">
<path d="M9.5 12C10.1531 12 10.7122 11.765 11.1773 11.295C11.6424 10.825 11.875 10.26 11.875 9.6C11.875 8.94 11.6424 8.375 11.1773 7.905C10.7122 7.435 10.1531 7.2 9.5 7.2C8.84687 7.2 8.28776 7.435 7.82266 7.905C7.35755 8.375 7.125 8.94 7.125 9.6C7.125 10.26 7.35755 10.825 7.82266 11.295C8.28776 11.765 8.84687 12 9.5 12ZM9.5 20.82C11.9146 18.58 13.7057 16.545 14.8734 14.715C16.0411 12.885 16.625 11.26 16.625 9.84C16.625 7.66 15.9372 5.875 14.5617 4.485C13.1862 3.095 11.499 2.4 9.5 2.4C7.50104 2.4 5.8138 3.095 4.43828 4.485C3.06276 5.875 2.375 7.66 2.375 9.84C2.375 11.26 2.95885 12.885 4.12656 14.715C5.29427 16.545 7.08542 18.58 9.5 20.82ZM9.5 24C6.31354 21.26 3.93359 18.715 2.36016 16.365C0.786719 14.015 0 11.84 0 9.84C0 6.84 0.954948 4.45 2.86484 2.67C4.77474 0.89 6.98646 0 9.5 0C12.0135 0 14.2253 0.89 16.1352 2.67C18.0451 4.45 19 6.84 19 9.84C19 11.84 18.2133 14.015 16.6398 16.365C15.0664 18.715 12.6865 21.26 9.5 24Z" fill="#C8C8C8"/>
</svg>
