<svg width="24" height="24" viewBox="0 0 24 24" fill="none" xmlns="http://www.w3.org/2000/svg">
<path d="M11.1504 2.25977C11.5417 1.63045 12.4583 1.63045 12.8496 2.25977L15.4121 6.38184C15.8251 7.04585 16.4811 7.52246 17.2402 7.70996L21.9521 8.87305C22.6715 9.0507 22.9541 9.92168 22.4766 10.4883L19.3486 14.1992C18.8446 14.7971 18.5942 15.5687 18.6504 16.3486L19 21.1895C19.0533 21.9285 18.3124 22.4675 17.626 22.1885L13.1299 20.3604C12.4053 20.0657 11.5947 20.0657 10.8701 20.3604L6.37402 22.1885C5.68761 22.4675 4.94665 21.9285 5 21.1895L5.34961 16.3496C5.40592 15.5695 5.15549 14.7973 4.65137 14.1992L1.52344 10.4883C1.04591 9.92168 1.32845 9.0507 2.04785 8.87305L6.75977 7.70996C7.51894 7.52246 8.17489 7.04585 8.58789 6.38184L11.1504 2.25977Z" stroke="#474747" stroke-width="2"/>
</svg>
