<svg width="20" height="20" viewBox="0 0 20 20" fill="none" xmlns="http://www.w3.org/2000/svg">
<circle cx="10" cy="10" r="10" fill="#FF6B6B"/>
<path d="M7.08301 15.8327V10.4952C6.58717 10.3591 6.17155 10.0868 5.83613 9.67852C5.50072 9.27018 5.33301 8.79379 5.33301 8.24935V4.16602H6.49967V8.24935H7.08301V4.16602H8.24967V8.24935H8.83301V4.16602H9.99967V8.24935C9.99967 8.79379 9.83197 9.27018 9.49655 9.67852C9.16113 10.0868 8.74551 10.3591 8.24967 10.4952V15.8327H7.08301ZM12.9163 15.8327V11.166H11.1663V7.08268C11.1663 6.27574 11.4507 5.58789 12.0195 5.01914C12.5882 4.45039 13.2761 4.16602 14.083 4.16602V15.8327H12.9163Z" fill="white"/>
</svg>
