<svg width="20" height="20" viewBox="0 0 20 20" fill="none" xmlns="http://www.w3.org/2000/svg">
<circle cx="10" cy="10" r="10" fill="#23C340"/>
<path d="M9.13002 4.46198C9.53085 3.84601 10.4691 3.84601 10.87 4.46198L12.1826 6.4791C12.3236 6.69582 12.5477 6.85135 12.807 6.91253L15.2204 7.48197C15.9574 7.65587 16.2474 8.50848 15.7581 9.06307L14.1559 10.8792C13.9838 11.0743 13.8982 11.3259 13.9174 11.5805L14.0964 13.9495C14.151 14.673 13.392 15.1999 12.6887 14.9267L10.3859 14.032C10.1385 13.9358 9.86153 13.9358 9.61411 14.032L7.31127 14.9267C6.60805 15.1999 5.84895 14.673 5.90361 13.9495L6.08259 11.5805C6.10182 11.3259 6.01624 11.0743 5.84409 10.8792L4.24188 9.06307C3.75261 8.50849 4.04256 7.65587 4.77956 7.48197L7.19302 6.91253C7.45232 6.85135 7.67637 6.69582 7.8174 6.4791L9.13002 4.46198Z" fill="white"/>
</svg>
