<svg width="12" height="12" viewBox="0 0 12 12" fill="none" xmlns="http://www.w3.org/2000/svg">
<path d="M5.13002 0.961979C5.53085 0.346007 6.46914 0.346007 6.86998 0.961979L8.1826 2.9791C8.32363 3.19582 8.54768 3.35135 8.80698 3.41253L11.2204 3.98197C11.9574 4.15587 12.2474 5.00848 11.7581 5.56307L10.1559 7.37916C9.98376 7.57428 9.89818 7.82593 9.91741 8.08047L10.0964 10.4495C10.151 11.173 9.39195 11.6999 8.68873 11.4267L6.38589 10.532C6.13847 10.4358 5.86153 10.4358 5.61411 10.532L3.31127 11.4267C2.60805 11.6999 1.84895 11.173 1.90361 10.4495L2.08259 8.08047C2.10182 7.82593 2.01624 7.57428 1.84409 7.37916L0.241884 5.56307C-0.247386 5.00849 0.0425613 4.15587 0.779562 3.98197L3.19302 3.41253C3.45232 3.35135 3.67637 3.19582 3.8174 2.9791L5.13002 0.961979Z" fill="white"/>
</svg>
