<svg width="12" height="12" viewBox="0 0 12 12" fill="none" xmlns="http://www.w3.org/2000/svg">
<path d="M11.2773 5.36234V9.99984C11.2773 10.3207 11.1631 10.5953 10.9346 10.8238C10.7062 11.0523 10.4315 11.1665 10.1107 11.1665H1.94401C1.62317 11.1665 1.34852 11.0523 1.12005 10.8238C0.891576 10.5953 0.77734 10.3207 0.77734 9.99984V5.36234C0.553729 5.15817 0.38116 4.89567 0.259632 4.57484C0.138104 4.254 0.135674 3.904 0.25234 3.52484L0.86484 1.5415C0.942618 1.28873 1.08116 1.0797 1.28047 0.914421C1.47977 0.749143 1.71067 0.666504 1.97317 0.666504H10.0815C10.344 0.666504 10.5725 0.746712 10.7669 0.907129C10.9614 1.06755 11.1023 1.279 11.1898 1.5415L11.8023 3.52484C11.919 3.904 11.9166 4.24914 11.795 4.56025C11.6735 4.87137 11.501 5.13873 11.2773 5.36234ZM7.31067 4.74984C7.57317 4.74984 7.77248 4.65991 7.90859 4.48005C8.0447 4.30018 8.09817 4.09845 8.06901 3.87484L7.74817 1.83317H6.61067V3.9915C6.61067 4.19567 6.67873 4.3731 6.81484 4.5238C6.95095 4.67449 7.11623 4.74984 7.31067 4.74984ZM4.68567 4.74984C4.90928 4.74984 5.09158 4.67449 5.23255 4.5238C5.37352 4.3731 5.44401 4.19567 5.44401 3.9915V1.83317H4.30651L3.98567 3.87484C3.94678 4.10817 3.99783 4.31234 4.1388 4.48734C4.27977 4.66234 4.46206 4.74984 4.68567 4.74984ZM2.08984 4.74984C2.26484 4.74984 2.41797 4.68664 2.54922 4.56025C2.68047 4.43386 2.76067 4.27345 2.78984 4.079L3.11067 1.83317H1.97317L1.38984 3.78734C1.33151 3.98178 1.3631 4.19081 1.48463 4.41442C1.60616 4.63803 1.8079 4.74984 2.08984 4.74984ZM9.96484 4.74984C10.2468 4.74984 10.451 4.63803 10.5773 4.41442C10.7037 4.19081 10.7329 3.98178 10.6648 3.78734L10.0523 1.83317H8.94401L9.26484 4.079C9.29401 4.27345 9.37422 4.43386 9.50547 4.56025C9.63672 4.68664 9.78984 4.74984 9.96484 4.74984ZM1.94401 9.99984H10.1107V5.88734C10.0621 5.90678 10.0305 5.9165 10.0159 5.9165H9.96484C9.70234 5.9165 9.47144 5.87275 9.27213 5.78525C9.07283 5.69775 8.87595 5.55678 8.68151 5.36234C8.50651 5.53734 8.3072 5.67345 8.08359 5.77067C7.85998 5.86789 7.62178 5.9165 7.36901 5.9165C7.10651 5.9165 6.86102 5.86789 6.63255 5.77067C6.40408 5.67345 6.20234 5.53734 6.02734 5.36234C5.86206 5.53734 5.67005 5.67345 5.4513 5.77067C5.23255 5.86789 4.99678 5.9165 4.74401 5.9165C4.46206 5.9165 4.20685 5.86789 3.97838 5.77067C3.74991 5.67345 3.54817 5.53734 3.37317 5.36234C3.16901 5.5665 2.96727 5.70991 2.76797 5.79255C2.56866 5.87518 2.34262 5.9165 2.08984 5.9165H2.02422C1.99991 5.9165 1.97317 5.90678 1.94401 5.88734V9.99984Z" fill="white"/>
</svg>
