<svg width="20" height="20" viewBox="0 0 20 20" fill="none" xmlns="http://www.w3.org/2000/svg">
<circle cx="10" cy="10" r="10" fill="#F95F43"/>
<path d="M15.265 9.44583V14.0833C15.265 14.4042 15.1508 14.6788 14.9223 14.9073C14.6938 15.1358 14.4192 15.25 14.0983 15.25H5.93168C5.61084 15.25 5.33619 15.1358 5.10772 14.9073C4.87925 14.6788 4.76501 14.4042 4.76501 14.0833V9.44583C4.5414 9.24167 4.36883 8.97917 4.2473 8.65833C4.12578 8.3375 4.12334 7.9875 4.24001 7.60833L4.85251 5.625C4.93029 5.37222 5.06883 5.16319 5.26814 4.99792C5.46744 4.83264 5.69834 4.75 5.96084 4.75H14.0692C14.3317 4.75 14.5602 4.83021 14.7546 4.99062C14.949 5.15104 15.09 5.3625 15.1775 5.625L15.79 7.60833C15.9067 7.9875 15.9042 8.33264 15.7827 8.64375C15.6612 8.95486 15.4886 9.22222 15.265 9.44583ZM11.2983 8.83333C11.5608 8.83333 11.7601 8.7434 11.8963 8.56354C12.0324 8.38368 12.0858 8.18194 12.0567 7.95833L11.7358 5.91667H10.5983V8.075C10.5983 8.27917 10.6664 8.4566 10.8025 8.60729C10.9386 8.75799 11.1039 8.83333 11.2983 8.83333ZM8.67334 8.83333C8.89696 8.83333 9.07925 8.75799 9.22022 8.60729C9.36119 8.4566 9.43168 8.27917 9.43168 8.075V5.91667H8.29418L7.97334 7.95833C7.93446 8.19167 7.9855 8.39583 8.12647 8.57083C8.26744 8.74583 8.44973 8.83333 8.67334 8.83333ZM6.07751 8.83333C6.25251 8.83333 6.40564 8.77014 6.53689 8.64375C6.66814 8.51736 6.74834 8.35694 6.77751 8.1625L7.09834 5.91667H5.96084L5.37751 7.87083C5.31918 8.06528 5.35078 8.27431 5.4723 8.49792C5.59383 8.72153 5.79557 8.83333 6.07751 8.83333ZM13.9525 8.83333C14.2345 8.83333 14.4386 8.72153 14.565 8.49792C14.6914 8.27431 14.7206 8.06528 14.6525 7.87083L14.04 5.91667H12.9317L13.2525 8.1625C13.2817 8.35694 13.3619 8.51736 13.4931 8.64375C13.6244 8.77014 13.7775 8.83333 13.9525 8.83333ZM5.93168 14.0833H14.0983V9.97083C14.0497 9.99028 14.0181 10 14.0036 10H13.9525C13.69 10 13.4591 9.95625 13.2598 9.86875C13.0605 9.78125 12.8636 9.64028 12.6692 9.44583C12.4942 9.62083 12.2949 9.75694 12.0713 9.85417C11.8477 9.95139 11.6095 10 11.3567 10C11.0942 10 10.8487 9.95139 10.6202 9.85417C10.3917 9.75694 10.19 9.62083 10.015 9.44583C9.84973 9.62083 9.65772 9.75694 9.43897 9.85417C9.22022 9.95139 8.98446 10 8.73168 10C8.44973 10 8.19453 9.95139 7.96605 9.85417C7.73758 9.75694 7.53584 9.62083 7.36084 9.44583C7.15668 9.65 6.95494 9.7934 6.75564 9.87604C6.55633 9.95868 6.33029 10 6.07751 10H6.01189C5.98758 10 5.96084 9.99028 5.93168 9.97083V14.0833Z" fill="white"/>
</svg>
