<svg width="15" height="15" viewBox="0 0 15 15" fill="none" xmlns="http://www.w3.org/2000/svg">
<mask id="mask0_2754_8668" style="mask-type:alpha" maskUnits="userSpaceOnUse" x="0" y="0" width="15" height="15">
<rect width="15" height="15" fill="white"/>
</mask>
<g mask="url(#mask0_2754_8668)">
<path d="M9.375 13.125L5.625 11.8125L2.71875 12.9375C2.51042 13.0208 2.31771 12.9974 2.14062 12.8672C1.96354 12.737 1.875 12.5625 1.875 12.3438V3.59375C1.875 3.45833 1.91406 3.33854 1.99219 3.23438C2.07031 3.13021 2.17708 3.05208 2.3125 3L5.625 1.875L9.375 3.1875L12.2812 2.0625C12.4896 1.97917 12.6823 2.0026 12.8594 2.13281C13.0365 2.26302 13.125 2.4375 13.125 2.65625V11.4062C13.125 11.5417 13.0859 11.6615 13.0078 11.7656C12.9297 11.8698 12.8229 11.9479 12.6875 12L9.375 13.125ZM8.75 11.5938V4.28125L6.25 3.40625V10.7188L8.75 11.5938ZM10 11.5938L11.875 10.9688V3.5625L10 4.28125V11.5938ZM3.125 11.4375L5 10.7188V3.40625L3.125 4.03125V11.4375Z" fill="white"/>
</g>
</svg>
